<?xml version="1.0" encoding="utf-8"?>
<!-- Generator: Adobe Illustrator 22.1.0, SVG Export Plug-In . SVG Version: 6.00 Build 0)  -->
<svg version="1.1" id="Layer_1" xmlns="http://www.w3.org/2000/svg" xmlns:xlink="http://www.w3.org/1999/xlink" x="0px" y="0px"
	 viewBox="0 0 144 181" style="enable-background:new 0 0 144 181;" xml:space="preserve">
<style type="text/css">
	.st0{fill:#F79756;}
</style>
<g>
	<polygon class="st0" points="72.2,87.4 28.3,43.7 18,53.8 72,108 121.5,58.5 101.2,58.5 	"/>
	<polygon class="st0" points="72,53.6 45.2,26.9 35.1,37 75.7,77.5 85.8,67.4 72.4,54 126,54 112.7,40.4 85.7,40.4 85.7,13.5 72,0 	
		"/>
</g>
<g>
	<path class="st0" d="M0,126h4v24.6h12.9l3.5,3.5H0V126z"/>
	<path class="st0" d="M33.9,143.8l9.8,0l-6.1-13.8l-10.6,24H23L35.7,126h4l12.8,28.1h-4.2l-3.1-7l-12.5,0L33.9,143.8z"/>
	<path class="st0" d="M125.5,143.8l9.8,0l-6.1-13.8l-10.6,24h-4.1l12.7-28.1h4l12.8,28.1h-4.2l-3.1-7l-12.5,0L125.5,143.8z"/>
	<path class="st0" d="M59.7,151.2c-2.1-2.1-3.1-5.2-3.1-9.2v-16h4v15.8c0,6,2.6,9,7.9,9c2.6,0,4.5-0.7,5.9-2.2c1.4-1.5,2-3.8,2-6.8
		V126h3.9v16c0,4-1,7.1-3.1,9.2c-2.1,2.1-5,3.2-8.7,3.2C64.7,154.4,61.8,153.3,59.7,151.2z"/>
	<path class="st0" d="M94.7,142.1H99c2.5,0,4.5-0.5,5.8-1.6c1.3-1.1,2-2.7,2-4.7c0-2-0.7-3.6-2-4.7c-1.3-1.1-3.3-1.6-5.8-1.6h-6.8
		v24.6h-4V126h11c3.6,0,6.5,0.9,8.6,2.6c2.1,1.7,3.1,4.1,3.1,7.2c0,2.2-0.5,4-1.6,5.5c-1.1,1.5-2.6,2.6-4.6,3.3l6.7,9.4H107
		l-6.1-8.6c-0.7,0.1-1.3,0.1-1.8,0.1h-4.4V142.1z"/>
	<path class="st0" d="M5.2,173.1l-3.3,3.4v4.3H0.1v-16.4h1.7v9.9l9.6-9.9h2l-7.1,7.4l7.6,9h-2.1L5.2,173.1z"/>
	<path class="st0" d="M31.3,164.4v16.4h-1.4l-10.5-13.3v13.3h-1.7v-16.4H19l10.6,13.3v-13.3H31.3z"/>
	<path class="st0" d="M48.8,179.3v1.5H37.2v-16.4h11.2v1.5h-9.5v5.8h8.5v1.5h-8.5v6.1H48.8z"/>
	<path class="st0" d="M65.5,179.3v1.5H53.9v-16.4h11.2v1.5h-9.5v5.8h8.5v1.5h-8.5v6.1H65.5z"/>
	<path class="st0" d="M72,180.4c-1.1-0.4-2-0.9-2.6-1.5l0.7-1.3c0.6,0.6,1.4,1.1,2.4,1.4c1,0.4,2,0.5,3,0.5c1.5,0,2.6-0.3,3.3-0.8
		c0.7-0.5,1.1-1.2,1.1-2.1c0-0.7-0.2-1.2-0.6-1.6c-0.4-0.4-0.9-0.7-1.5-0.9c-0.6-0.2-1.4-0.4-2.4-0.7c-1.2-0.3-2.2-0.6-2.9-0.9
		c-0.7-0.3-1.4-0.7-1.9-1.3c-0.5-0.6-0.8-1.4-0.8-2.4c0-0.8,0.2-1.6,0.7-2.3c0.4-0.7,1.1-1.2,2-1.6c0.9-0.4,2-0.6,3.4-0.6
		c0.9,0,1.9,0.1,2.8,0.4c0.9,0.3,1.7,0.6,2.3,1.1l-0.6,1.4c-0.7-0.5-1.4-0.8-2.2-1c-0.8-0.2-1.5-0.3-2.3-0.3c-1.4,0-2.5,0.3-3.2,0.8
		c-0.7,0.6-1.1,1.3-1.1,2.1c0,0.7,0.2,1.2,0.6,1.6c0.4,0.4,0.9,0.7,1.5,0.9c0.6,0.2,1.4,0.4,2.4,0.7c1.2,0.3,2.2,0.6,2.9,0.9
		c0.7,0.3,1.4,0.7,1.9,1.3c0.5,0.6,0.8,1.4,0.8,2.4c0,0.8-0.2,1.6-0.7,2.3c-0.4,0.7-1.1,1.2-2,1.6c-0.9,0.4-2.1,0.6-3.4,0.6
		C74.3,181,73.1,180.8,72,180.4z"/>
	<path class="st0" d="M99.3,164.4v16.4h-1.7v-7.6H87.3v7.6h-1.7v-16.4h1.7v7.3h10.3v-7.3H99.3z"/>
	<path class="st0" d="M115.8,176.4h-9.1l-2,4.4h-1.8l7.5-16.4h1.7l7.5,16.4h-1.8L115.8,176.4z M115.1,175l-3.9-8.8l-3.9,8.8H115.1z"
		/>
	<path class="st0" d="M143.5,164.4l-5.5,16.4h-1.8l-4.8-14l-4.8,14h-1.8l-5.5-16.4h1.8l4.7,14.1l4.9-14.1h1.6l4.8,14.2l4.8-14.2
		H143.5z"/>
</g>
</svg>
